<?xml version="1.0" encoding="UTF-8"?>
<svg xmlns="http://www.w3.org/2000/svg" xmlns:xlink="http://www.w3.org/1999/xlink" width="768pt" height="767.999994pt" viewBox="0 0 768 767.999994" version="1.2">
<defs>
<clipPath id="clip1">
  <path d="M 115.179688 33 L 691 33 L 691 735 L 115.179688 735 Z M 115.179688 33 "/>
</clipPath>
</defs>
<g id="surface1">
<rect x="0" y="0" width="768" height="767.999994" style="fill:rgb(100%,100%,100%);fill-opacity:1;stroke:none;"/>
<rect x="0" y="0" width="768" height="767.999994" style="fill:rgb(100%,100%,100%);fill-opacity:1;stroke:none;"/>
<rect x="0" y="0" width="768" height="767.999994" style="fill:rgb(100%,100%,100%);fill-opacity:1;stroke:none;"/>
<g clip-path="url(#clip1)" clip-rule="nonzero">
<path style=" stroke:none;fill-rule:nonzero;fill:rgb(0%,0%,0%);fill-opacity:1;" d="M 673.109375 124.984375 L 411.433594 35.003906 C 406.09375 33.175781 400.261719 33.175781 394.921875 35.003906 L 133.25 124.984375 C 122.464844 128.851562 115.261719 139.113281 115.367188 150.609375 L 115.367188 346.808594 C 115.824219 459.074219 169.226562 564.554688 259.414062 631.40625 L 391.796875 730.773438 C 398.542969 735.800781 407.816406 735.800781 414.5625 730.773438 L 546.980469 631.40625 C 637.132812 564.554688 690.535156 459.074219 690.992188 346.808594 L 690.992188 150.609375 C 691.097656 139.113281 683.894531 128.851562 673.109375 124.984375 "/>
</g>
<path style=" stroke:none;fill-rule:nonzero;fill:rgb(100%,100%,100%);fill-opacity:1;" d="M 421.535156 356.371094 L 389.582031 356.371094 C 382.011719 356.371094 375.859375 358.621094 371.132812 363.125 C 366.402344 367.613281 360.960938 376.472656 354.800781 389.703125 L 296.578125 520.226562 C 294.675781 524.949219 291.835938 527.789062 288.046875 528.746094 C 284.261719 529.6875 280.710938 530.15625 277.398438 530.15625 L 273.863281 530.15625 C 270.074219 530.15625 266.523438 528.621094 263.210938 525.542969 C 259.894531 522.46875 258.003906 519.039062 257.53125 515.257812 L 239.765625 434.402344 C 237.882812 425.410156 236.820312 413.820312 236.585938 399.636719 C 236.347656 385.449219 236.230469 373.15625 236.230469 362.75 L 236.230469 154.21875 L 229.117188 154.21875 L 229.117188 363.457031 C 229.117188 373.859375 229.234375 386.15625 229.46875 400.34375 C 229.707031 414.527344 230.773438 426.117188 232.671875 435.109375 L 250.417969 515.257812 C 252.316406 522.824219 255.277344 528.378906 259.300781 531.925781 C 263.320312 535.472656 268.175781 537.242188 273.863281 537.242188 L 278.832031 537.242188 C 283.089844 537.242188 287.585938 536.417969 292.3125 534.769531 C 297.054688 533.109375 300.371094 529.914062 302.257812 525.191406 L 360.480469 393.257812 C 366.167969 380.484375 371.019531 372.324219 375.042969 368.777344 C 379.066406 365.230469 383.910156 363.457031 389.582031 363.457031 L 421.535156 363.457031 C 427.222656 363.457031 432.074219 365.230469 436.097656 368.777344 C 440.117188 372.324219 444.972656 380.484375 450.660156 393.257812 L 508.882812 525.191406 C 510.769531 529.914062 514.078125 533.109375 518.804688 534.769531 C 523.550781 536.417969 528.050781 537.242188 532.308594 537.242188 L 537.277344 537.242188 C 542.964844 537.242188 547.816406 535.472656 551.839844 531.925781 C 555.863281 528.378906 558.816406 522.824219 560.703125 515.257812 L 578.464844 435.109375 C 580.351562 426.117188 581.414062 414.527344 581.648438 400.34375 C 581.886719 386.15625 582.003906 373.859375 582.003906 363.457031 L 582.003906 154.21875 L 574.910156 154.21875 L 574.910156 362.75 C 574.910156 373.15625 574.792969 385.449219 574.554688 399.636719 C 574.320312 413.820312 573.253906 425.410156 571.351562 434.402344 L 553.609375 515.257812 C 553.136719 519.039062 551.242188 522.46875 547.929688 525.542969 C 544.613281 528.621094 541.066406 530.15625 537.277344 530.15625 L 533.722656 530.15625 C 530.40625 530.15625 526.855469 529.6875 523.070312 528.746094 C 519.285156 527.789062 516.449219 524.949219 514.5625 520.226562 L 456.335938 389.703125 C 450.179688 376.472656 444.738281 367.613281 440.007812 363.125 C 435.277344 358.621094 429.121094 356.371094 421.535156 356.371094 Z M 525.921875 90.382812 L 631.71875 90.382812 C 640.707031 90.382812 647.210938 92.398438 651.230469 96.429688 C 655.269531 100.445312 657.285156 106.945312 657.285156 115.921875 L 657.285156 391.136719 C 657.285156 406.265625 656.6875 420.332031 655.496094 433.339844 C 654.316406 446.335938 650.648438 461.582031 644.492188 479.078125 L 608.984375 575.542969 C 606.625 582.636719 603.195312 588.667969 598.6875 593.640625 C 594.191406 598.601562 588.160156 601.082031 580.589844 601.082031 L 486.148438 601.082031 C 478.574219 601.082031 471.710938 599.425781 465.554688 596.113281 C 459.410156 592.804688 455.386719 587.367188 453.488281 579.800781 L 420.828125 464.179688 C 419.414062 459.457031 417.640625 456.269531 415.503906 454.621094 C 413.382812 452.957031 410.898438 452.128906 408.054688 452.128906 L 401.667969 452.128906 C 398.828125 452.128906 396.335938 452.957031 394.203125 454.621094 C 392.078125 456.269531 390.304688 459.457031 388.875 464.179688 L 355.511719 579.800781 C 353.609375 586.894531 350.058594 592.214844 344.859375 595.761719 C 339.660156 599.308594 333.265625 601.082031 325.679688 601.082031 L 231.964844 601.082031 C 224.394531 601.082031 217.882812 598.71875 212.433594 593.996094 C 206.996094 589.257812 203.09375 583.105469 200.722656 575.542969 L 165.210938 477.667969 C 159.070312 460.167969 155.402344 444.921875 154.207031 431.929688 C 153.027344 418.921875 152.441406 404.84375 152.441406 389.703125 L 152.441406 115.921875 C 152.441406 106.945312 154.449219 100.445312 158.472656 96.429688 C 162.492188 92.398438 169.003906 90.382812 178.003906 90.382812 L 287.339844 90.382812 C 296.339844 90.382812 302.851562 92.398438 306.875 96.429688 C 310.894531 100.445312 312.90625 106.945312 312.90625 115.921875 L 312.90625 376.945312 L 354.09375 287.566406 C 357.882812 279.53125 362.847656 273.859375 368.988281 270.546875 C 375.148438 267.238281 382.726562 265.582031 391.726562 265.582031 L 421.535156 265.582031 C 430.535156 265.582031 438.109375 267.238281 444.25 270.546875 C 450.410156 273.859375 455.378906 279.53125 459.167969 287.566406 L 500.355469 376.945312 L 500.355469 115.921875 C 500.355469 106.945312 502.367188 100.445312 506.386719 96.429688 C 510.410156 92.398438 516.921875 90.382812 525.921875 90.382812 Z M 525.921875 90.382812 "/>
</g>
</svg>
